<?xml version="1.0" encoding="UTF-8"?>
<!DOCTYPE svg PUBLIC "-//W3C//DTD SVG 1.1//EN" "http://www.w3.org/Graphics/SVG/1.1/DTD/svg11.dtd">
<!-- Creator: CorelDRAW 2017 -->
<svg xmlns="http://www.w3.org/2000/svg" xml:space="preserve" width="500mm" height="87.4208mm" version="1.1" style="shape-rendering:geometricPrecision; text-rendering:geometricPrecision; image-rendering:optimizeQuality; fill-rule:evenodd; clip-rule:evenodd"
viewBox="0 0 4846908 847441"
 xmlns:xlink="http://www.w3.org/1999/xlink">
 <defs>
  <style type="text/css">
   <![CDATA[
    .fil0 {fill:#002E5F;fill-rule:nonzero}
    .fil1 {fill:url(#id0);fill-rule:nonzero}
   ]]>
  </style>
  <linearGradient id="id0" gradientUnits="userSpaceOnUse" x1="306434" y1="189046" x2="364271" y2="223999">
   <stop offset="0" style="stop-opacity:1; stop-color:#0F1735"/>
   <stop offset="1" style="stop-opacity:1; stop-color:#002E5F"/>
  </linearGradient>
 </defs>
 <g id="Capa_x0020_1">
  <metadata id="CorelCorpID_0Corel-Layer"/>
  <g id="_2574311915712">
   <g id="_2574324374800">
    <g>
     <g>
      <g>
       <path class="fil0" d="M423544 383169c-17521,0 -31736,18151 -31736,40551 0,22400 14215,40514 31736,40514 17484,0 31737,-18151 31737,-40514 0,-22400 -14216,-40551 -31737,-40551z"/>
      </g>
     </g>
     <g>
      <g>
       <path class="fil0" d="M511000 385133c-16539,0 -29948,17271 -29948,38616 0,21309 13409,38587 29948,38587 16502,0 29911,-17271 29911,-38587 0,-21345 -13409,-38616 -29911,-38616z"/>
      </g>
     </g>
     <g>
      <g>
       <path class="fil0" d="M594843 387104c-15557,0 -28124,16400 -28124,36653 0,20224 12603,36616 28124,36616 15520,0 28123,-16400 28123,-36616 0,-20261 -12603,-36653 -28123,-36653z"/>
      </g>
     </g>
     <g>
      <g>
       <path class="fil0" d="M675102 389068c-14567,0 -26328,15520 -26328,34689 0,19169 11797,34689 26328,34689 14538,0 26299,-15521 26299,-34689 0,-19170 -11797,-34689 -26299,-34689z"/>
      </g>
     </g>
     <g>
      <g>
       <path class="fil0" d="M751705 391003c-13549,0 -24541,14641 -24541,32718 0,18077 10992,32718 24541,32718 13519,0 24503,-14641 24503,-32718 0,-18114 -10991,-32718 -24503,-32718z"/>
      </g>
     </g>
     <g>
      <g>
       <path class="fil0" d="M824768 392967c-12567,0 -22752,13761 -22752,30754 0,16993 10179,30790 22752,30790 12530,0 22716,-13761 22716,-30790 0,-17029 -10148,-30754 -22716,-30754z"/>
      </g>
     </g>
    </g>
    <g>
     <g>
      <g>
       <path class="fil0" d="M336441 385133c16538,0 29947,17271 29947,38616 0,21309 -13409,38587 -29947,38587 -16503,0 -29912,-17271 -29912,-38587 0,-21345 13409,-38616 29912,-38616z"/>
      </g>
     </g>
     <g>
      <g>
       <path class="fil0" d="M252605 387104c15557,0 28161,16400 28161,36653 0,20224 -12604,36616 -28161,36616 -15520,0 -28124,-16400 -28124,-36616 0,-20261 12604,-36653 28124,-36653z"/>
      </g>
     </g>
     <g>
      <g>
       <path class="fil0" d="M172382 389068c14568,0 26328,15520 26328,34689 0,19169 -11797,34689 -26328,34689 -14538,0 -26298,-15521 -26298,-34689 0,-19170 11797,-34689 26298,-34689z"/>
      </g>
     </g>
     <g>
      <g>
       <path class="fil0" d="M95743 391003c13549,0 24540,14641 24540,32718 0,18077 -10991,32718 -24540,32718 -13519,0 -24503,-14641 -24503,-32718 0,-18114 10954,-32718 24503,-32718z"/>
      </g>
     </g>
     <g>
      <g>
       <path class="fil0" d="M22716 392967c12567,0 22752,13761 22752,30754 0,16993 -10178,30790 -22752,30790 -12530,0 -22716,-13761 -22716,-30790 0,-17029 10149,-30754 22716,-30754z"/>
      </g>
     </g>
    </g>
    <g>
     <g>
      <g>
       <path class="fil0" d="M385140 336441c0,16539 17271,29948 38616,29948 21309,0 38587,-13409 38587,-29948 0,-16502 -17271,-29911 -38587,-29911 -21308,0 -38616,13409 -38616,29911z"/>
      </g>
     </g>
     <g>
      <g>
       <path class="fil0" d="M387104 252606c0,15557 16399,28123 36652,28123 20224,0 36616,-12603 36616,-28123 0,-15521 -16399,-28124 -36616,-28124 -20260,0 -36652,12603 -36652,28124z"/>
      </g>
     </g>
     <g>
      <g>
       <path class="fil0" d="M389068 172383c0,14567 15520,26328 34688,26328 19170,0 34689,-11798 34689,-26328 0,-14538 -15520,-26299 -34689,-26299 -19169,0 -34688,11797 -34688,26299z"/>
      </g>
     </g>
     <g>
      <g>
       <path class="fil0" d="M391002 95736c0,13549 14641,24540 32719,24540 18077,0 32718,-10991 32718,-24540 0,-13520 -14641,-24504 -32718,-24504 -18114,0 -32719,10992 -32719,24504z"/>
      </g>
     </g>
     <g>
      <g>
       <path class="fil0" d="M392966 22716c0,12567 13761,22752 30755,22752 16992,0 30790,-10179 30790,-22752 0,-12530 -13761,-22716 -30790,-22716 -17030,0 -30755,10148 -30755,22716z"/>
      </g>
     </g>
    </g>
    <g>
     <g>
      <g>
       <path class="fil0" d="M385140 511000c0,-16539 17271,-29948 38616,-29948 21309,0 38587,13409 38587,29948 0,16502 -17271,29911 -38587,29911 -21308,0 -38616,-13409 -38616,-29911z"/>
      </g>
     </g>
     <g>
      <g>
       <path class="fil0" d="M387104 594836c0,-15557 16399,-28124 36652,-28124 20224,0 36616,12604 36616,28124 0,15520 -16399,28123 -36616,28123 -20260,0 -36652,-12603 -36652,-28123z"/>
      </g>
     </g>
     <g>
      <g>
       <path class="fil0" d="M389068 675058c0,-14538 15520,-26327 34688,-26327 19170,0 34689,11797 34689,26327 0,14539 -15520,26299 -34689,26299 -19169,0 -34688,-11797 -34688,-26299z"/>
      </g>
     </g>
     <g>
      <g>
       <path class="fil0" d="M391002 751669c0,-13549 14641,-24541 32719,-24541 18077,0 32718,10992 32718,24541 0,13519 -14641,24503 -32718,24503 -18114,0 -32719,-10992 -32719,-24503z"/>
      </g>
     </g>
     <g>
      <g>
       <path class="fil0" d="M392966 824726c0,-12567 13761,-22716 30755,-22716 16992,0 30790,10149 30790,22716 0,12530 -13761,22716 -30790,22716 -17030,0 -30755,-10149 -30755,-22716z"/>
      </g>
     </g>
    </g>
    <g>
     <g>
      <g>
       <path class="fil0" d="M300630 492219c11688,-11687 33385,-8954 48487,6112 15058,15058 17799,36755 6111,48450 -11659,11659 -33355,8954 -48414,-6111 -15094,-15095 -17836,-36792 -6140,-48451l-45 0z"/>
      </g>
     </g>
     <g>
      <g>
       <path class="fil0" d="M242743 552885c10991,-10992 31494,-8287 45820,6001 14326,14326 16992,34791 6000,45783 -10991,10955 -31457,8287 -45783,-6001 -14326,-14326 -16992,-34828 -6037,-45783z"/>
      </g>
     </g>
     <g>
      <g>
       <path class="fil0" d="M187375 611022c10288,-10288 29596,-7650 43145,5899 13549,13548 16187,32864 5899,43145 -10251,10287 -29559,7620 -43115,-5900 -13549,-13548 -16187,-32864 -5936,-43144l7 0z"/>
      </g>
     </g>
     <g>
      <g>
       <path class="fil0" d="M134608 666565c9585,-9584 27699,-7019 40478,5797 12779,12779 15380,30893 5796,40477 -9584,9547 -27698,6954 -40477,-5825 -12816,-12780 -15381,-30894 -5826,-40478l29 29z"/>
      </g>
     </g>
     <g>
      <g>
       <path class="fil0" d="M84334 719611c8881,-8881 25808,-6353 37847,5685 12011,12040 14568,28966 5686,37848 -8881,8881 -25808,6316 -37811,-5723 -12039,-12039 -14567,-28929 -5686,-37810l-36 0z"/>
      </g>
     </g>
    </g>
    <g>
     <g>
      <g>
       <path class="fil0" d="M300630 492219c11688,-11687 33385,-8954 48487,6112 15058,15058 17799,36755 6111,48450 -11659,11659 -33355,8954 -48414,-6111 -15094,-15095 -17836,-36792 -6140,-48451l-45 0z"/>
      </g>
     </g>
     <g>
      <g>
       <path class="fil0" d="M242743 552885c10991,-10992 31494,-8287 45820,6001 14326,14326 16992,34791 6000,45783 -10991,10955 -31457,8287 -45783,-6001 -14326,-14326 -16992,-34828 -6037,-45783z"/>
      </g>
     </g>
     <g>
      <g>
       <path class="fil0" d="M187375 611022c10288,-10288 29596,-7650 43145,5899 13549,13548 16187,32864 5899,43145 -10251,10287 -29559,7620 -43115,-5900 -13549,-13548 -16187,-32864 -5936,-43144l7 0z"/>
      </g>
     </g>
     <g>
      <g>
       <path class="fil0" d="M134608 666565c9585,-9584 27699,-7019 40478,5797 12779,12779 15380,30893 5796,40477 -9584,9547 -27698,6954 -40477,-5825 -12816,-12780 -15381,-30894 -5826,-40478l29 29z"/>
      </g>
     </g>
     <g>
      <g>
       <path class="fil0" d="M84334 719611c8881,-8881 25808,-6353 37847,5685 12011,12040 14568,28966 5686,37848 -8881,8881 -25808,6316 -37811,-5723 -12039,-12039 -14567,-28929 -5686,-37810l-36 0z"/>
      </g>
     </g>
    </g>
    <g>
     <g>
      <g>
       <path class="fil0" d="M553236 348766c-11688,11688 -33385,8955 -48450,-6111 -15058,-15058 -17799,-36755 -6112,-48451 11659,-11658 33355,-8954 48414,6112 15095,15094 17799,36792 6141,48450l7 0z"/>
      </g>
     </g>
     <g>
      <g>
       <path class="fil0" d="M611168 288093c-10991,10992 -31494,8288 -45820,-6001 -14289,-14326 -16992,-34791 -6001,-45783 10955,-10955 31458,-8287 45784,6001 14326,14326 16992,34828 6037,45783z"/>
      </g>
     </g>
     <g>
      <g>
       <path class="fil0" d="M666536 229993c-10288,10288 -29597,7650 -43145,-5899 -13549,-13548 -16187,-32864 -5899,-43145 10251,-10288 29559,-7620 43115,5899 13549,13549 16187,32865 5936,43145l-7 0z"/>
      </g>
     </g>
     <g>
      <g>
       <path class="fil0" d="M719301 174413c-9584,9584 -27698,7019 -40477,-5797 -12779,-12779 -15380,-30893 -5796,-40477 9547,-9547 27698,-6953 40477,5826 12779,12815 15381,30893 5826,40477l-30 -29z"/>
      </g>
     </g>
     <g>
      <g>
       <path class="fil0" d="M769576 121369c-8881,8881 -25808,6352 -37847,-5686 -12040,-12011 -14568,-28929 -5686,-37848 8881,-8881 25808,-6316 37811,5723 12039,12039 14567,28929 5722,37811z"/>
      </g>
     </g>
    </g>
    <g>
     <g>
      <g>
       <path class="fil0" d="M355229 294204c11688,11688 8954,33385 -6111,48487 -15058,15058 -36756,17799 -48451,6111 -11658,-11658 -8954,-33355 6111,-48450 15095,-15095 36792,-17799 48451,-6141l0 -8z"/>
      </g>
     </g>
     <g>
      <g>
       <path class="fil0" d="M294556 236280c10991,10992 8287,31494 -6001,45820 -14326,14289 -34791,16992 -45783,6001 -10955,-10992 -8287,-31457 6038,-45783 14326,-14326 34828,-16993 45783,-6038l-37 0z"/>
      </g>
     </g>
     <g>
      <g>
       <path class="fil0" d="M236419 180949c10288,10288 7650,29597 -5899,43145 -13549,13549 -32864,16187 -43145,5899 -10251,-10251 -7620,-29559 5899,-43115 13549,-13549 32865,-16187 43145,-5936l0 7z"/>
      </g>
     </g>
     <g>
      <g>
       <path class="fil0" d="M180875 128146c9585,9584 7020,27698 -5796,40477 -12779,12779 -30893,15381 -40477,5796 -9584,-9584 -6983,-27698 5825,-40477 12816,-12816 30893,-15381 40478,-5826l-30 30z"/>
      </g>
     </g>
     <g>
      <g>
       <path class="fil0" d="M127830 77871c8881,8881 6353,25808 -5686,37811 -12039,12039 -28966,14567 -37847,5686 -8881,-8845 -6316,-25772 5723,-37811 12039,-12040 28929,-14568 37810,-5686z"/>
      </g>
     </g>
    </g>
    <g>
     <g>
      <g>
       <path class="fil0" d="M498682 546810c-11688,-11687 -8954,-33385 6111,-48487 15058,-15058 36755,-17799 48451,-6111 11658,11688 8954,33355 -6112,48450 -15094,15095 -36792,17799 -48450,6141l0 7z"/>
      </g>
     </g>
     <g>
      <g>
       <path class="fil0" d="M559347 604706c-10991,-10992 -8287,-31494 6001,-45820 14290,-14289 34792,-16993 45783,-6001 10992,10992 8288,31457 -6000,45783 -14326,14326 -34829,16993 -45784,6038z"/>
      </g>
     </g>
     <g>
      <g>
       <path class="fil0" d="M617484 660073c-10288,-10288 -7650,-29596 5899,-43145 13549,-13548 32865,-16187 43145,-5899 10288,10251 7620,29560 -5899,43116 -13549,13549 -32864,16187 -43116,5936l-29 -8z"/>
      </g>
     </g>
     <g>
      <g>
       <path class="fil0" d="M673028 712840c-9584,-9584 -7020,-27698 5796,-40477 12779,-12779 30893,-15381 40477,-5797 9585,9585 6983,27699 -5825,40478 -12816,12816 -30893,15380 -40477,5825l29 -29z"/>
      </g>
     </g>
     <g>
      <g>
       <path class="fil0" d="M726073 763115c-8881,-8881 -6353,-25808 5686,-37848 12039,-12039 28966,-14567 37847,-5686 8881,8881 6316,25772 -5722,37811 -12040,12040 -28929,14568 -37811,5723z"/>
      </g>
     </g>
    </g>
    <g>
     <g>
      <path class="fil0" d="M128674 510546c12566,-5056 28225,4388 35003,21169 6778,16780 2074,34439 -10500,39532 -12530,5056 -28190,-4426 -34968,-21169 -6778,-16780 -2074,-34477 10464,-39532z"/>
     </g>
    </g>
    <g>
     <g>
      <path class="fil0" d="M61685 539717c11658,-4704 26226,4251 32578,20012 6353,15762 2104,32337 -9547,37041 -11622,4704 -26189,-4287 -32579,-20048 -6353,-15799 -2103,-32338 9548,-37042l0 37z"/>
     </g>
    </g>
    <g>
     <g>
      <path class="fil0" d="M197201 485016c-11658,4704 -15938,21243 -9584,37041 6353,15761 20957,24716 32615,20012 11622,-4704 15901,-21272 9548,-37041 -6390,-15799 -20957,-24716 -32579,-20049l0 37z"/>
     </g>
    </g>
    <g>
     <g>
      <path class="fil0" d="M699569 276193c12567,-5055 28225,4389 35004,21169 6778,16781 2074,34440 -10501,39533 -12530,5055 -28189,-4426 -34968,-21170 -6778,-16780 -2074,-34439 10464,-39532z"/>
     </g>
    </g>
    <g>
     <g>
      <path class="fil0" d="M632580 305336c11658,-4704 26226,4250 32615,20012 6353,15761 2074,32337 -9584,37041 -11622,4704 -26189,-4287 -32579,-20049 -6352,-15798 -2074,-32337 9548,-37041l0 37z"/>
     </g>
    </g>
    <g>
     <g>
      <path class="fil0" d="M768104 250635c-11659,4704 -15938,21243 -9584,37041 6352,15762 20957,24753 32615,20049 11622,-4704 15901,-21272 9547,-37041 -6352,-15799 -20927,-24716 -32578,-20049z"/>
     </g>
    </g>
    <g>
     <g>
      <path class="fil0" d="M153631 276127c12501,5232 16992,22958 10010,39672 -6983,16678 -22752,25947 -35247,20716 -12500,-5233 -16955,-22958 -9973,-39635 6983,-16715 22752,-25947 35247,-20753l-37 0z"/>
     </g>
    </g>
    <g>
     <g>
      <path class="fil0" d="M85492 249726c11585,4843 15659,21448 9094,37144 -6566,15695 -21243,24467 -32865,19623 -11548,-4844 -15623,-21448 -9057,-37144 6566,-15695 21243,-24467 32828,-19623z"/>
     </g>
    </g>
    <g>
     <g>
      <path class="fil0" d="M220306 306141c-11585,-4843 -26262,3899 -32865,19623 -6566,15696 -2491,32301 9094,37181 11548,4844 26262,-3935 32828,-19623 6566,-15696 2491,-32300 -9057,-37144l0 -37z"/>
     </g>
    </g>
    <g>
     <g>
      <path class="fil0" d="M724387 510927c12501,5232 16993,22957 10010,39672 -6983,16677 -22752,25946 -35246,20715 -12501,-5232 -16956,-22958 -9973,-39635 6983,-16714 22752,-25947 35246,-20716l-37 -36z"/>
     </g>
    </g>
    <g>
     <g>
      <path class="fil0" d="M656211 484525c11585,4844 15659,21449 9094,37144 -6566,15696 -21243,24467 -32865,19623 -11548,-4843 -15623,-21448 -9057,-37143 6566,-15696 21243,-24467 32828,-19624z"/>
     </g>
    </g>
    <g>
     <g>
      <path class="fil0" d="M791025 540948c-11585,-4843 -26262,3899 -32828,19623 -6566,15696 -2491,32301 9094,37181 11585,4844 26262,-3935 32827,-19623 6566,-15696 2491,-32300 -9057,-37144l-36 -37z"/>
     </g>
    </g>
    <g>
     <g>
      <path class="fil0" d="M278794 696477c5232,-12501 22958,-16993 39672,-10010 16678,6983 25947,22752 20716,35283 -5233,12501 -22958,16956 -39635,9973 -16715,-6983 -25947,-22752 -20753,-35246z"/>
     </g>
    </g>
    <g>
     <g>
      <path class="fil0" d="M252430 764624c4843,-11585 21448,-15659 37144,-9094 15695,6566 24466,21243 19623,32865 -4844,11585 -21484,15623 -37144,9057 -15696,-6566 -24467,-21243 -19623,-32828z"/>
     </g>
    </g>
    <g>
     <g>
      <path class="fil0" d="M308816 629810c-4844,11585 3898,26299 19623,32865 15696,6565 32337,2491 37181,-9094 4843,-11585 -3935,-26262 -19623,-32828 -15696,-6566 -32301,-2491 -37144,9057l-37 0z"/>
     </g>
    </g>
    <g>
     <g>
      <path class="fil0" d="M513601 125721c5232,-12501 22958,-16993 39672,-10010 16677,6983 25947,22752 20715,35283 -5232,12501 -22957,16956 -39635,9973 -16714,-6983 -25946,-22752 -20752,-35246z"/>
     </g>
    </g>
    <g>
     <g>
      <path class="fil0" d="M487200 193904c4843,-11585 21448,-15659 37144,-9094 15695,6566 24467,21243 19623,32864 -4844,11585 -21448,15623 -37144,9058 -15695,-6566 -24467,-21243 -19623,-32828z"/>
     </g>
    </g>
    <g>
     <g>
      <path class="fil0" d="M543615 59047c-4843,11585 3899,26298 19623,32864 15696,6566 32301,2491 37181,-9094 4844,-11585 -3935,-26262 -19623,-32827 -15696,-6566 -32301,-2491 -37144,9057l-37 0z"/>
     </g>
    </g>
    <g>
     <g>
      <path class="fil0" d="M514898 720951c-5158,-12567 4214,-28262 20957,-35107 16714,-6844 34440,-2249 39606,10288 5129,12501 -4250,28226 -20994,35070 -16743,6881 -34440,2279 -39569,-10251z"/>
     </g>
    </g>
    <g>
     <g>
      <path class="fil0" d="M544428 787794c-4777,-11622 4111,-26262 19836,-32719 15724,-6463 32337,-2249 37107,9373 4740,11584 -4140,26225 -19872,32689 -15762,6463 -32338,2278 -37078,-9336l7 -7z"/>
     </g>
    </g>
    <g>
     <g>
      <path class="fil0" d="M488987 652592c4778,11622 21346,15835 37107,9372 15725,-6463 24614,-21067 19836,-32718 -4741,-11585 -21346,-15762 -37078,-9335 -15762,6463 -24614,21067 -19872,32689l7 -8z"/>
     </g>
    </g>
    <g>
     <g>
      <path class="fil0" d="M277358 151352c-5159,-12530 4213,-28262 20957,-35106 16714,-6844 34439,-2250 39605,10288 5130,12501 -4250,28225 -20993,35106 -16744,6881 -34440,2250 -39569,-10251l0 -37z"/>
     </g>
    </g>
    <g>
     <g>
      <path class="fil1" d="M306881 218195c-4777,-11622 4074,-26262 19836,-32718 15724,-6463 32337,-2279 37107,9372 4777,11585 -4140,26226 -19872,32689 -15762,6463 -32338,2279 -37078,-9335l7 -8z"/>
     </g>
    </g>
    <g>
     <g>
      <path class="fil0" d="M251411 82994c4778,11621 21346,15835 37107,9372 15725,-6463 24614,-21103 19836,-32719 -4741,-11584 -21346,-15761 -37078,-9335 -15762,6463 -24614,21068 -19872,32689l7 -7z"/>
     </g>
    </g>
   </g>
   <g id="_2574198868048">
    <g>
     <g>
      <g>
       <path class="fil0" d="M1504815 460300c-8353,43533 -23170,78714 -55579,102799 -31949,24086 -81982,37496 -161640,37496 -79204,0 -225991,-5547 -225991,-176911 0,-171363 146823,-176910 225991,-176910 78751,0 200081,10178 217213,141240l-147278 0c-3722,-23625 -19448,-57895 -69935,-57895 -53257,0 -87067,26401 -87067,93566 0,67166 32894,93567 80575,93567 41218,0 65758,-17132 76398,-56979l147277 0 37 29z"/>
      </g>
     </g>
     <g>
      <g>
       <polygon class="fil0" points="1527912,258394 1658520,258394 1658520,500155 1860916,500155 1860916,589047 1527912,589047 "/>
      </g>
     </g>
     <g>
      <g>
       <path class="fil0" d="M2013250 258394l160233 0 140786 330689 -138925 0 -13900 -37986 -136148 0 -13900 37986 -138925 0 140786 -330689 -8 0zm80575 100023l0 0 -916 0 -38902 112068 78713 0 -38902 -112068 8 0z"/>
      </g>
     </g>
     <g>
      <g>
       <path class="fil0" d="M2326316 258394l254253 0c112069,0 171364,43534 171364,165326 0,116245 -58805,165326 -168587,165326l-257031 0 0 -330689 0 37zm130600 247308l0 0 75027 0c59758,0 83836,-29633 83836,-81982 0,-52312 -24086,-81982 -83836,-81982l-75027 0 0 163955 0 8z"/>
      </g>
     </g>
    </g>
   </g>
   <g id="_2574198874544">
    <path class="fil0" d="M3100068 294945c-5759,-3334 -10148,-8112 -13204,-14362 -3055,-6251 -4602,-13622 -4602,-22085 0,-8427 1509,-15761 4602,-21976 3055,-6250 7482,-11020 13204,-14361 5723,-3335 12464,-4984 20187,-4984 5056,0 9834,770 14362,2353 4529,1583 8464,3862 11834,6844 1437,1157 2176,2668 2176,4602 0,1371 -388,2565 -1157,3510 -770,945 -1686,1437 -2740,1437 -1297,0 -2565,-491 -3788,-1510 -3650,-2740 -7020,-4704 -10039,-5796 -3020,-1121 -6463,-1649 -10288,-1649 -8427,0 -14883,2705 -19382,8149 -4528,5444 -6778,13234 -6778,23419 0,10251 2250,18114 6778,23522 4492,5444 10992,8148 19382,8148 3686,0 7019,-564 10039,-1722 3019,-1157 6463,-3055 10251,-5760 1546,-982 2806,-1472 3788,-1472 1056,0 2001,491 2740,1437 770,945 1157,2139 1157,3509 0,1898 -740,3444 -2176,4603 -3371,2982 -7305,5268 -11834,6844 -4528,1582 -9306,2352 -14361,2352 -7724,0 -14465,-1649 -20188,-4983l37 -66z"/>
   </g>
   <g id="_2574198876656">
    <path class="fil0" d="M3172913 297473c-1019,-1019 -1546,-2425 -1546,-4177l0 -69444c0,-1758 527,-3158 1546,-4177 1019,-1019 2454,-1546 4316,-1546l42237 0c1758,0 3121,418 4074,1260 945,843 1436,2038 1436,3547 0,1509 -491,2704 -1436,3510 -946,806 -2316,1194 -4074,1194l-36514 0 0 25485 34227 0c1759,0 3121,418 4074,1260 945,843 1437,2038 1437,3584 0,1509 -491,2704 -1437,3546 -945,843 -2315,1261 -4074,1261l-34227 0 0 26753 36514 0c3686,0 5510,1583 5510,4704 0,1546 -491,2704 -1436,3546 -946,843 -2316,1260 -4074,1260l-42237 0c-1824,0 -3268,-527 -4316,-1546l0 -21z"/>
   </g>
   <g id="_2574198877328">
    <path class="fil0" d="M3312050 219148c1055,1121 1546,2565 1546,4316l0 70147c0,1758 -528,3195 -1612,4316 -1056,1122 -2455,1649 -4140,1649 -2001,0 -3510,-769 -4602,-2279l-45006 -59368 0 55682c0,1758 -527,3195 -1546,4316 -1019,1122 -2389,1649 -4074,1649 -1686,0 -3019,-527 -4037,-1612 -982,-1055 -1472,-2528 -1472,-4353l0 -70147c0,-1758 527,-3195 1612,-4316 1055,-1122 2454,-1649 4139,-1649 2001,0 3510,770 4603,2279l45005 59471 0 -55785c0,-1758 491,-3195 1510,-4316 981,-1122 2315,-1649 4001,-1649 1685,0 3055,564 4074,1649z"/>
   </g>
   <g id="_2574198877552">
    <path class="fil0" d="M3362009 297927c-1092,-1121 -1648,-2527 -1648,-4316l0 -65684 -22958 0c-3686,0 -5510,-1649 -5510,-4954 0,-1612 491,-2843 1436,-3687 945,-842 2316,-1260 4074,-1260l57859 0c1759,0 3122,418 4074,1260 945,843 1437,2074 1437,3687 0,3297 -1824,4954 -5511,4954l-22957 0 0 65684c0,1758 -527,3195 -1612,4316 -1056,1122 -2528,1649 -4353,1649 -1758,0 -3195,-564 -4317,-1649l-15 0z"/>
   </g>
   <g id="_2574198880112">
    <path class="fil0" d="M3483311 294871c0,1371 -564,2565 -1649,3510 -1092,945 -2389,1437 -3861,1437 -2139,0 -3862,-945 -5159,-2880l-15380 -23873c-1758,-2741 -3650,-4669 -5620,-5797 -2001,-1121 -4602,-1648 -7797,-1648l-12992 0 0 28013c0,1824 -527,3297 -1546,4353 -1019,1055 -2491,1612 -4316,1612 -1759,0 -3195,-527 -4251,-1612 -1092,-1056 -1612,-2528 -1612,-4353l0 -69795c0,-1759 528,-3158 1546,-4177 1019,-1019 2455,-1546 4317,-1546l28577 0c8954,0 15798,2001 20502,5972 4704,3964 7057,9797 7057,17447 0,6353 -1789,11482 -5408,15446 -3613,3936 -8742,6463 -15380,7511 2000,528 3788,1510 5407,2880 1612,1371 3158,3298 4704,5723l11834 18604c704,982 1019,2074 1019,3195l7 -22zm-31106 -38792l0 0c5972,0 10391,-1158 13270,-3510 2880,-2353 4317,-5936 4317,-10845 0,-4917 -1408,-8463 -4251,-10742 -2842,-2250 -7268,-3371 -13307,-3371l-21484 0 0 28475 21484 0 -29 -7z"/>
   </g>
   <g id="_2574198879856">
    <path class="fil0" d="M3521261 294871c-5620,-3371 -9973,-8148 -13028,-14361 -3056,-6215 -4602,-13520 -4602,-21947 0,-8493 1509,-15872 4528,-22085 3019,-6251 7371,-11021 13028,-14362 5650,-3334 12325,-4983 19975,-4983 7723,0 14428,1649 20115,4983 5650,3335 10009,8112 13028,14362 3019,6251 4528,13586 4528,21976 0,8427 -1509,15761 -4528,21975 -3020,6251 -7372,11058 -13028,14391 -5650,3372 -12362,5056 -20115,5056 -7650,0 -14289,-1685 -19909,-5056l8 51zm38865 -12845l0 0c4528,-5510 6778,-13344 6778,-23521 0,-10179 -2250,-18012 -6704,-23485 -4492,-5474 -10816,-8215 -18994,-8215 -8038,0 -14289,2740 -18780,8215 -4455,5473 -6705,13307 -6705,23485 0,10178 2250,18011 6705,23521 4491,5511 10742,8251 18780,8251 8112,0 14428,-2740 18957,-8251l-37 0z"/>
   </g>
   <g id="_2574198881200">
    <path class="fil0" d="M3643998 297510c-1019,-982 -1546,-2353 -1546,-4002l0 -70045c0,-1758 527,-3195 1612,-4316 1056,-1122 2491,-1649 4250,-1649 1825,0 3298,527 4353,1612 1056,1056 1612,2528 1612,4353l0 65685 34895 0c1758,0 3121,418 4074,1260 945,842 1436,2074 1436,3686 0,1612 -491,2843 -1436,3686 -946,843 -2316,1260 -4074,1260l-41006 0c-1758,0 -3158,-491 -4176,-1509l7 -21z"/>
   </g>
   <g id="_2574198881360">
    <path class="fil0" d="M3784571 294418c0,1472 -593,2667 -1788,3686 -1194,982 -2491,1509 -3965,1509 -981,0 -1934,-278 -2806,-879 -879,-564 -1546,-1407 -2000,-2454l-7584 -17235 -42024 0 -7584 17235c-455,1055 -1157,1897 -2074,2454 -916,564 -1861,879 -2880,879 -1546,0 -2880,-491 -4074,-1509 -1194,-982 -1788,-2213 -1788,-3686 0,-630 175,-1371 564,-2316l32373 -70851c527,-1231 1407,-2176 2565,-2879 1194,-704 2425,-1019 3722,-1019 1297,0 2528,352 3722,1019 1194,703 2037,1648 2601,2879l32373 70851c389,916 564,1686 564,2316l80 0zm-55925 -24790l0 0 33635 0 -16891 -38023 -16780 38023 36 0z"/>
   </g>
   <g id="_2574198881872">
    <path class="fil0" d="M3816659 297927c-1121,-1121 -1648,-2527 -1648,-4316l0 -65684 -22958 0c-3686,0 -5510,-1649 -5510,-4954 0,-1612 491,-2843 1436,-3687 945,-842 2316,-1260 4074,-1260l57859 0c1758,0 3121,418 4073,1260 946,843 1437,2074 1437,3687 0,3297 -1861,4954 -5510,4954l-22958 0 0 65684c0,1758 -527,3195 -1612,4316 -1056,1122 -2528,1649 -4353,1649 -1758,0 -3195,-564 -4316,-1649l-16 0z"/>
   </g>
   <g id="_2574198881008">
    <path class="fil0" d="M3875397 297964c-1056,-1055 -1612,-2528 -1612,-4353l0 -70147c0,-1758 527,-3195 1612,-4316 1055,-1122 2491,-1649 4250,-1649 1824,0 3298,527 4353,1612 1056,1056 1612,2528 1612,4353l0 70147c0,1824 -527,3298 -1546,4353 -1018,1056 -2491,1612 -4425,1612 -1758,0 -3195,-527 -4251,-1612l8 0z"/>
   </g>
   <g id="_2574198880880">
    <path class="fil0" d="M3977984 219148c1019,1121 1546,2565 1546,4316l0 70147c0,1758 -527,3195 -1612,4316 -1056,1122 -2454,1649 -4140,1649 -2001,0 -3510,-769 -4602,-2279l-45006 -59368 0 55682c0,1758 -527,3195 -1546,4316 -1019,1122 -2389,1649 -4074,1649 -1685,0 -3019,-527 -4037,-1612 -982,-1055 -1472,-2528 -1472,-4353l0 -70147c0,-1758 527,-3195 1612,-4316 1055,-1122 2454,-1649 4140,-1649 2000,0 3510,770 4602,2279l45006 59471 0 -55785c0,-1758 491,-3195 1509,-4316 982,-1122 2316,-1649 4001,-1649 1686,0 3055,564 4074,1649z"/>
   </g>
   <g id="_2574198883216">
    <path class="fil0" d="M4021832 294871c-5620,-3371 -9972,-8148 -13028,-14361 -3055,-6215 -4602,-13520 -4602,-21947 0,-8493 1510,-15872 4529,-22085 3019,-6251 7371,-11021 13028,-14362 5650,-3334 12325,-4983 19975,-4983 7723,0 14428,1649 20115,4983 5650,3335 10009,8112 13028,14362 3019,6251 4528,13586 4528,21976 0,8427 -1509,15761 -4528,21975 -3020,6251 -7372,11058 -13028,14391 -5650,3372 -12363,5056 -20115,5056 -7650,0 -14289,-1685 -19909,-5056l7 51zm38866 -12845l0 0c4528,-5510 6778,-13344 6778,-23521 0,-10179 -2250,-18012 -6705,-23485 -4491,-5474 -10815,-8215 -18993,-8215 -8038,0 -14289,2740 -18781,8215 -4491,5473 -6704,13307 -6704,23485 0,10178 2249,18011 6704,23521 4492,5511 10743,8251 18781,8251 8112,0 14428,-2740 18957,-8251l-37 0z"/>
   </g>
   <g id="_2574198883280">
    <path class="fil0" d="M4174137 294418c0,1472 -594,2667 -1789,3686 -1194,982 -2491,1509 -3964,1509 -982,0 -1935,-278 -2806,-879 -879,-564 -1546,-1407 -2001,-2454l-7584 -17235 -42024 0 -7583 17235c-455,1055 -1158,1897 -2074,2454 -916,564 -1861,879 -2879,879 -1546,0 -2880,-491 -4074,-1509 -1194,-982 -1789,-2213 -1789,-3686 0,-630 176,-1371 564,-2316l32373 -70851c528,-1231 1408,-2176 2602,-2879 1194,-704 2425,-1019 3722,-1019 1297,0 2528,352 3722,1019 1194,703 2037,1648 2565,2879l32373 70851c388,916 564,1686 564,2316l80 0zm-55896 -24790l0 0 33634 0 -16890 -38023 -16744 38023z"/>
   </g>
   <g id="_2574198884432">
    <path class="fil0" d="M4271030 219148c1056,1121 1612,2565 1612,4316l0 70499c0,1758 -491,3158 -1436,4140 -945,982 -2279,1509 -3965,1509 -1612,0 -2879,-491 -3788,-1509 -916,-982 -1370,-2353 -1370,-4140l0 -53396 -22503 42830c-1437,2667 -3335,4001 -5620,4001 -2279,0 -4177,-1334 -5620,-4001l-22613 -42376 0 52942c0,1758 -455,3158 -1371,4140 -916,982 -2212,1509 -3898,1509 -1612,0 -2880,-527 -3825,-1546 -945,-1019 -1436,-2389 -1436,-4074l0 -70499c0,-1758 527,-3194 1612,-4316 1055,-1121 2454,-1649 4139,-1649 2353,0 4287,1371 5723,4140l27457 52488 27208 -52488c1436,-2740 3334,-4140 5620,-4140 1685,0 3055,564 4139,1649l-66 -29z"/>
   </g>
   <g id="_2574198883696">
    <path class="fil0" d="M4301755 297473c-1019,-1019 -1546,-2425 -1546,-4177l0 -69444c0,-1758 527,-3158 1546,-4177 1018,-1019 2454,-1546 4316,-1546l42236 0c1758,0 3121,418 4074,1260 945,843 1437,2038 1437,3547 0,1509 -491,2704 -1437,3510 -945,806 -2316,1194 -4074,1194l-36514 0 0 25485 34228 0c1758,0 3121,418 4074,1260 945,843 1436,2038 1436,3584 0,1509 -491,2704 -1436,3546 -945,843 -2316,1261 -4074,1261l-34228 0 0 26753 36514 0c3687,0 5511,1583 5511,4704 0,1546 -491,2704 -1437,3546 -945,843 -2316,1260 -4074,1260l-42236 0c-1824,0 -3269,-527 -4316,-1546l0 -21z"/>
   </g>
   <g id="_2574198884880">
    <path class="fil0" d="M4440152 294871c0,1371 -564,2565 -1686,3510 -1092,945 -2389,1437 -3825,1437 -2139,0 -3861,-945 -5158,-2880l-15381 -23873c-1758,-2741 -3649,-4669 -5620,-5797 -2000,-1121 -4602,-1648 -7796,-1648l-12993 0 0 28013c0,1824 -527,3297 -1546,4353 -1018,1055 -2454,1612 -4316,1612 -1758,0 -3195,-527 -4250,-1612 -1092,-1056 -1612,-2528 -1612,-4353l0 -69795c0,-1759 527,-3158 1546,-4177 1018,-1019 2454,-1546 4316,-1546l28577 0c8955,0 15799,2001 20503,5972 4704,3964 7056,9797 7056,17447 0,6353 -1788,11482 -5407,15446 -3613,3936 -8742,6463 -15381,7511 2001,528 3788,1510 5408,2880 1612,1371 3158,3298 4704,5723l11833 18604c704,982 1019,2074 1019,3195l8 -22zm-31106 -38792l0 0c5972,0 10391,-1158 13271,-3510 2880,-2353 4316,-5936 4316,-10845 0,-4917 -1407,-8463 -4250,-10742 -2843,-2250 -7269,-3371 -13307,-3371l-21485 0 0 28475 21485 0 -30 -7z"/>
   </g>
   <g id="_2574198885392">
    <path class="fil0" d="M4465425 297964c-1092,-1055 -1612,-2528 -1612,-4353l0 -70147c0,-1758 527,-3195 1612,-4316 1055,-1122 2491,-1649 4250,-1649 1824,0 3298,527 4353,1612 1056,1056 1612,2528 1612,4353l0 70147c0,1824 -527,3298 -1546,4353 -1055,1056 -2528,1612 -4425,1612 -1759,0 -3195,-527 -4251,-1612l8 0z"/>
   </g>
   <g id="_2574198886064">
    <path class="fil0" d="M4518125 294945c-5760,-3334 -10149,-8112 -13205,-14362 -3055,-6251 -4602,-13622 -4602,-22085 0,-8427 1546,-15761 4602,-21976 3055,-6250 7445,-11020 13205,-14361 5722,-3335 12464,-4984 20187,-4984 5056,0 9833,770 14362,2353 4528,1583 8464,3862 11834,6844 1472,1157 2176,2668 2176,4602 0,1371 -389,2565 -1158,3510 -769,945 -1685,1437 -2740,1437 -1297,0 -2564,-491 -3788,-1510 -3686,-2740 -7019,-4704 -10039,-5796 -3019,-1121 -6463,-1649 -10288,-1649 -8427,0 -14882,2705 -19418,8149 -4529,5444 -6778,13234 -6778,23419 0,10251 2249,18114 6778,23522 4528,5444 10991,8148 19418,8148 3687,0 7020,-564 10039,-1722 3020,-1157 6427,-3055 10251,-5760 1546,-982 2807,-1472 3789,-1472 1055,0 2000,491 2740,1437 769,945 1157,2139 1157,3509 0,1898 -741,3444 -2176,4603 -3371,2982 -7305,5268 -11834,6844 -4528,1582 -9306,2352 -14362,2352 -7723,0 -14464,-1649 -20187,-4983l37 -66z"/>
   </g>
   <g id="_2574198821808">
    <path class="fil0" d="M4659651 294418c0,1472 -594,2667 -1789,3686 -1194,982 -2491,1509 -3964,1509 -982,0 -1935,-278 -2806,-879 -879,-564 -1546,-1407 -2001,-2454l-7584 -17235 -42024 0 -7583 17235c-455,1055 -1158,1897 -2074,2454 -916,564 -1861,879 -2879,879 -1546,0 -2880,-491 -4074,-1509 -1194,-982 -1789,-2213 -1789,-3686 0,-630 176,-1371 564,-2316l32373 -70851c528,-1231 1408,-2176 2565,-2879 1194,-704 2425,-1019 3722,-1019 1297,0 2528,352 3722,1019 1194,703 2037,1648 2602,2879l32372 70851c389,916 565,1686 565,2316l80 0zm-55896 -24790l0 0 33634 0 -16890 -38023 -16781 38023 37 0z"/>
   </g>
   <g id="_2574198823248">
    <path class="fil0" d="M4745487 219148c1018,1121 1546,2565 1546,4316l0 70147c0,1758 -528,3195 -1612,4316 -1056,1122 -2455,1649 -4140,1649 -2001,0 -3510,-769 -4602,-2279l-45006 -59368 0 55682c0,1758 -527,3195 -1546,4316 -1019,1122 -2389,1649 -4074,1649 -1686,0 -3019,-527 -4001,-1612 -982,-1055 -1509,-2528 -1509,-4353l0 -70147c0,-1758 527,-3195 1612,-4316 1055,-1122 2454,-1649 4139,-1649 2001,0 3510,770 4603,2279l45005 59471 0 -55785c0,-1758 491,-3195 1510,-4316 981,-1122 2315,-1649 4001,-1649 1685,0 3055,564 4074,1649z"/>
   </g>
   <g id="_2574198822224">
    <path class="fil0" d="M4789335 294871c-5620,-3371 -9973,-8148 -13028,-14361 -3055,-6215 -4602,-13520 -4602,-21947 0,-8493 1509,-15872 4528,-22085 3020,-6251 7372,-11021 13029,-14362 5650,-3334 12325,-4983 19975,-4983 7723,0 14427,1649 20114,4983 5650,3335 10010,8112 13028,14362 3020,6251 4529,13586 4529,21976 0,8427 -1509,15761 -4529,21975 -3019,6251 -7371,11058 -13028,14391 -5650,3372 -12362,5056 -20114,5056 -7650,0 -14290,-1685 -19909,-5056l7 51zm38865 -12845l0 0c4529,-5510 6779,-13344 6779,-23521 0,-10179 -2250,-18012 -6705,-23485 -4492,-5474 -10815,-8215 -18993,-8215 -8038,0 -14289,2740 -18781,8215 -4492,5473 -6705,13307 -6705,23485 0,10178 2250,18011 6705,23521 4492,5511 10743,8251 18781,8251 8112,0 14428,-2740 18956,-8251l-37 0z"/>
   </g>
   <g id="_2574198823696">
    <path class="fil0" d="M3086549 455318c-1019,-1019 -1546,-2425 -1546,-4177l0 -69444c0,-1758 527,-3158 1546,-4177 1018,-1019 2491,-1546 4316,-1546l22503 0c13094,0 23243,3510 30403,10566 7196,7057 10779,16993 10779,29845 0,12853 -3583,22818 -10779,29912 -7196,7093 -17345,10639 -30403,10639l-22503 0c-1824,0 -3268,-527 -4316,-1546l0 -73zm26123 -8317l0 0c19909,0 29845,-10214 29845,-30651 0,-20364 -9936,-30542 -29845,-30542l-15835 0 0 61193 15835 0z"/>
   </g>
   <g id="_2574198823920">
    <path class="fil0" d="M3180812 455318c-1019,-1019 -1546,-2425 -1546,-4177l0 -69444c0,-1758 527,-3158 1546,-4177 1018,-1019 2454,-1546 4316,-1546l42236 0c1759,0 3122,418 4074,1260 945,843 1437,2038 1437,3547 0,1546 -455,2704 -1437,3510 -945,806 -2315,1194 -4074,1194l-36513 0 0 25485 34198 0c1758,0 3121,418 4074,1260 945,843 1436,2038 1436,3547 0,1546 -491,2704 -1436,3547 -946,842 -2316,1260 -4074,1260l-34198 0 0 26753 36513 0c3687,0 5511,1583 5511,4704 0,1546 -455,2704 -1437,3547 -945,842 -2315,1260 -4074,1260l-42236 0c-1824,0 -3268,-528 -4316,-1546l0 15z"/>
   </g>
   <g id="_2574198826192">
    <path class="fil0" d="M3365974 452299c0,1472 -593,2667 -1789,3686 -1194,982 -2527,1509 -3964,1509 -982,0 -1935,-278 -2806,-879 -879,-564 -1546,-1408 -2001,-2454l-7583 -17235 -42025 0 -7583 17235c-455,1055 -1158,1897 -2074,2454 -915,564 -1861,879 -2879,879 -1546,0 -2880,-491 -4074,-1509 -1194,-982 -1789,-2213 -1789,-3686 0,-631 176,-1371 565,-2316l32372 -70851c528,-1231 1408,-2176 2565,-2880 1194,-703 2425,-1018 3722,-1018 1297,0 2528,352 3722,1018 1194,704 2038,1649 2565,2880l32373 70851c388,916 564,1685 564,2316l117 0zm-55888 -24819l0 0 33634 0 -16891 -37986 -16743 37986z"/>
   </g>
   <g id="_2574198826256">
    <path class="fil0" d="M3388411 455318c-1019,-1019 -1546,-2425 -1546,-4177l0 -69444c0,-1758 527,-3158 1546,-4177 1018,-1019 2491,-1546 4316,-1546l22503 0c13094,0 23243,3510 30439,10566 7196,7057 10780,16993 10780,29845 0,12853 -3584,22818 -10780,29912 -7196,7093 -17344,10639 -30439,10639l-22503 0c-1824,0 -3268,-527 -4316,-1546l0 -73zm26123 -8317l0 0c19909,0 29845,-10214 29845,-30651 0,-20364 -9936,-30542 -29845,-30542l-15835 0 0 61193 15835 0z"/>
   </g>
   <g id="_2574198826064">
    <path class="fil0" d="M3557108 377029c1092,1121 1612,2564 1612,4316l0 70499c0,1758 -491,3158 -1437,4140 -945,982 -2279,1509 -3964,1509 -1612,0 -2880,-491 -3788,-1509 -916,-982 -1371,-2353 -1371,-4140l0 -53396 -22503 42830c-1436,2667 -3334,4001 -5620,4001 -2279,0 -4176,-1334 -5620,-4001l-22613 -42376 0 52942c0,1758 -454,3158 -1370,4140 -916,982 -2213,1509 -3899,1509 -1612,0 -2880,-527 -3861,-1546 -946,-1019 -1437,-2389 -1437,-4074l0 -70499c0,-1758 527,-3195 1612,-4316 1056,-1122 2454,-1649 4140,-1649 2389,0 4287,1371 5723,4140l27456 52488 27208 -52488c1473,-2740 3335,-4140 5620,-4140 1686,0 3055,564 4140,1649l-29 -29z"/>
   </g>
   <g id="_2574198828848">
    <path class="fil0" d="M3587898 455845c-1092,-1092 -1612,-2528 -1612,-4353l0 -70147c0,-1758 527,-3195 1612,-4316 1055,-1122 2491,-1649 4250,-1649 1824,0 3298,527 4353,1612 1056,1092 1612,2528 1612,4353l0 70147c0,1824 -527,3298 -1546,4353 -1055,1056 -2528,1612 -4425,1612 -1759,0 -3195,-527 -4251,-1612l8 0z"/>
   </g>
   <g id="_2574198827952">
    <path class="fil0" d="M3690485 377029c1055,1121 1546,2564 1546,4316l0 70147c0,1758 -527,3195 -1612,4316 -1056,1122 -2454,1649 -4140,1649 -2001,0 -3510,-770 -4602,-2279l-45006 -59368 0 55682c0,1758 -527,3195 -1546,4316 -1055,1122 -2389,1649 -4074,1649 -1685,0 -3019,-527 -4001,-1612 -982,-1092 -1509,-2528 -1509,-4353l0 -70147c0,-1758 527,-3195 1612,-4316 1055,-1122 2454,-1649 4140,-1649 2000,0 3509,770 4602,2279l45006 59471 0 -55785c0,-1758 491,-3195 1509,-4316 982,-1122 2315,-1649 4001,-1649 1686,0 3055,564 4074,1649z"/>
   </g>
   <g id="_2574198828912">
    <path class="fil0" d="M3721063 455845c-1092,-1092 -1612,-2528 -1612,-4353l0 -70147c0,-1758 527,-3195 1612,-4316 1055,-1122 2491,-1649 4250,-1649 1824,0 3298,527 4353,1612 1056,1092 1612,2528 1612,4353l0 70147c0,1824 -527,3298 -1546,4353 -1055,1056 -2491,1612 -4425,1612 -1759,0 -3195,-527 -4251,-1612l8 0z"/>
   </g>
   <g id="_2574198831440">
    <path class="fil0" d="M3768876 455390c-5232,-1612 -9446,-3824 -12567,-6667 -1437,-1231 -2176,-2806 -2176,-4704 0,-1371 389,-2528 1157,-3510 770,-945 1686,-1437 2740,-1437 1056,0 2390,491 3899,1510 6807,5055 14604,7583 23309,7583 6111,0 10845,-1157 14113,-3444 3298,-2315 4954,-5584 4954,-9862 0,-3371 -1546,-5899 -4602,-7584 -3055,-1685 -7972,-3297 -14677,-4806 -6426,-1371 -11725,-2946 -15835,-4704 -4140,-1759 -7372,-4140 -9687,-7196 -2316,-3020 -3510,-6881 -3510,-11549 0,-4668 1297,-8815 3862,-12464 2564,-3649 6140,-6463 10742,-8492 4602,-2038 9833,-3056 15725,-3056 5444,0 10464,770 15029,2279 4602,1546 8493,3788 11724,6778 1546,1297 2316,2880 2316,4704 0,1297 -389,2455 -1194,3444 -807,982 -1759,1509 -2806,1509 -982,0 -2250,-491 -3789,-1509 -3509,-2667 -6844,-4602 -9936,-5796 -3092,-1194 -6844,-1789 -11196,-1789 -5899,0 -10464,1195 -13761,3613 -3297,2425 -4954,5760 -4954,10039 0,3686 1473,6426 4353,8324 2917,1898 7584,3584 14010,5129 6742,1546 12186,3122 16363,4778 4176,1649 7511,3898 10009,6778 2491,2880 3722,6566 3722,11095 0,4602 -1260,8668 -3861,12215 -2565,3546 -6141,6316 -10780,8250 -4631,1964 -9973,2917 -16010,2917 -5826,0 -11373,-807 -16605,-2425l-80 50z"/>
   </g>
   <g id="_2574198829520">
    <path class="fil0" d="M3858544 455772c-1121,-1122 -1649,-2528 -1649,-4317l0 -65684 -22957 0c-3650,0 -5511,-1649 -5511,-4954 0,-1612 491,-2843 1437,-3686 945,-843 2316,-1261 4074,-1261l57859 0c1758,0 3121,418 4074,1261 945,842 1437,2074 1437,3686 0,3297 -1861,4954 -5511,4954l-22957 0 0 65684c0,1758 -528,3195 -1612,4317 -1056,1121 -2528,1648 -4353,1648 -1759,0 -3195,-564 -4317,-1648l-15 0z"/>
   </g>
   <g id="_2574198834000">
    <path class="fil0" d="M3979845 452723c0,1370 -564,2565 -1649,3510 -1121,945 -2389,1436 -3861,1436 -2140,0 -3862,-945 -5159,-2879l-15381 -23874c-1758,-2740 -3649,-4668 -5620,-5796 -2001,-1122 -4602,-1649 -7797,-1649l-12956 0 0 28013c0,1825 -527,3298 -1546,4353 -1018,1055 -2491,1612 -4316,1612 -1758,0 -3195,-528 -4250,-1612 -1056,-1092 -1612,-2528 -1612,-4353l0 -69795c0,-1758 527,-3158 1546,-4176 1019,-1019 2454,-1546 4316,-1546l28578 0c8954,0 15798,2000 20502,5971 4704,3965 7056,9798 7056,17447 0,6353 -1788,11483 -5407,15447 -3613,3935 -8742,6463 -15381,7511 2001,527 3788,1509 5408,2880 1612,1370 3158,3297 4704,5722l11834 18605c666,982 1018,2074 1018,3195l-29 -22zm-31106 -38799l0 0c5971,0 10390,-1158 13270,-3510 2880,-2316 4317,-5936 4317,-10845 0,-4917 -1408,-8463 -4251,-10742 -2843,-2250 -7268,-3371 -13307,-3371l-21484 0 0 28475 21484 0 -29 -7z"/>
   </g>
   <g id="_2574198836176">
    <path class="fil0" d="M4074709 452299c0,1472 -594,2667 -1789,3686 -1194,982 -2491,1509 -3964,1509 -982,0 -1935,-278 -2806,-879 -879,-564 -1546,-1408 -2001,-2454l-7584 -17235 -42024 0 -7583 17235c-455,1055 -1158,1897 -2074,2454 -916,564 -1861,879 -2879,879 -1546,0 -2880,-491 -4074,-1509 -1194,-982 -1789,-2213 -1789,-3686 0,-631 176,-1371 564,-2316l32404 -70851c527,-1231 1407,-2176 2564,-2880 1194,-703 2425,-1018 3722,-1018 1297,0 2528,352 3722,1018 1194,704 2038,1649 2565,2880l32403 70851c389,916 564,1685 564,2316l59 0zm-55932 -24819l0 0 33634 0 -16890 -37986 -16744 37986z"/>
   </g>
   <g id="_2574198846736">
    <path class="fil0" d="M4107991 452789c-5759,-3334 -10148,-8112 -13204,-14362 -3056,-6251 -4603,-13622 -4603,-22085 0,-8427 1546,-15761 4603,-21976 3055,-6250 7445,-11020 13204,-14361 5723,-3335 12464,-4983 20187,-4983 5056,0 9834,769 14362,2352 4529,1583 8464,3862 11834,6844 1437,1157 2176,2668 2176,4602 0,1371 -389,2528 -1157,3510 -770,945 -1686,1437 -2740,1437 -1297,0 -2565,-491 -3788,-1510 -3687,-2740 -7020,-4703 -10039,-5796 -3020,-1121 -6464,-1649 -10288,-1649 -8427,0 -14883,2705 -19382,8149 -4529,5445 -6778,13234 -6778,23419 0,10251 2249,18114 6778,23522 4492,5444 10992,8148 19382,8148 3686,0 7019,-564 10039,-1722 3019,-1157 6463,-3055 10288,-5723 1545,-982 2806,-1509 3788,-1509 1055,0 2000,491 2740,1437 769,945 1157,2139 1157,3509 0,1898 -740,3444 -2176,4603 -3371,2982 -7305,5269 -11834,6844 -4528,1582 -9306,2352 -14362,2352 -7723,0 -14464,-1649 -20187,-4983l0 -66z"/>
   </g>
   <g id="_2574198847376">
    <path class="fil0" d="M4180908 455845c-1092,-1092 -1612,-2528 -1612,-4353l0 -70147c0,-1758 528,-3195 1612,-4316 1056,-1122 2491,-1649 4251,-1649 1824,0 3297,527 4353,1612 1055,1092 1612,2528 1612,4353l0 70147c0,1824 -528,3298 -1546,4353 -1056,1056 -2491,1612 -4426,1612 -1758,0 -3195,-527 -4250,-1612l7 0z"/>
   </g>
   <g id="_2574198847440">
    <path class="fil0" d="M4233432 452723c-5620,-3371 -9973,-8149 -13028,-14362 -3055,-6214 -4602,-13519 -4602,-21946 0,-8493 1509,-15872 4528,-22085 3019,-6251 7372,-11021 13028,-14362 5686,-3334 12326,-4983 19975,-4983 7723,0 14428,1649 20086,4983 5650,3334 10009,8112 13028,14362 3019,6251 4528,13585 4528,21975 0,8427 -1509,15762 -4528,21976 -3020,6251 -7372,11021 -13028,14391 -5650,3371 -12363,5056 -20086,5056 -7649,0 -14289,-1686 -19909,-5056l8 51zm38865 -12853l0 0c4529,-5510 6778,-13344 6778,-23521 0,-10179 -2249,-18012 -6704,-23485 -4492,-5474 -10816,-8215 -18993,-8215 -8039,0 -14290,2740 -18781,8215 -4492,5473 -6705,13307 -6705,23485 0,10178 2250,18011 6705,23521 4491,5511 10742,8251 18781,8251 8111,0 14427,-2740 18956,-8251l-37 0zm-18956 -70286l0 0c-843,0 -1546,-279 -2139,-807 -565,-527 -843,-1194 -843,-1964 0,-769 352,-1472 1019,-2176l10918 -11585c1437,-1436 2946,-2176 4492,-2176 1297,0 2425,455 3334,1371 916,916 1371,2037 1371,3334 0,1824 -1092,3407 -3232,4704l-13204 8845c-528,315 -1122,455 -1723,455l8 0z"/>
   </g>
   <g id="_2574198847568">
    <path class="fil0" d="M4380608 377029c1018,1121 1546,2564 1546,4316l0 70147c0,1758 -528,3195 -1612,4316 -1056,1122 -2455,1649 -4140,1649 -2001,0 -3510,-770 -4602,-2279l-45006 -59368 0 55682c0,1758 -527,3195 -1546,4316 -1056,1122 -2389,1649 -4074,1649 -1686,0 -3019,-527 -4037,-1612 -982,-1092 -1472,-2528 -1472,-4353l0 -70147c0,-1758 527,-3195 1612,-4316 1055,-1122 2454,-1649 4140,-1649 2000,0 3509,770 4602,2279l45005 59471 0 -55785c0,-1758 491,-3195 1510,-4316 982,-1122 2315,-1649 4001,-1649 1685,0 3055,564 4074,1649z"/>
   </g>
   <g id="_2574198848208">
    <path class="fil0" d="M3086622 613689c-1055,-1055 -1612,-2528 -1612,-4353l0 -69795c0,-1758 528,-3158 1546,-4177 1019,-1019 2491,-1546 4317,-1546l27661 0c8566,0 15234,2104 19975,6316 4741,4214 7130,10179 7130,17909 0,7649 -2389,13622 -7130,17908 -4741,4287 -11409,6426 -19975,6426l-21697 0 0 26995c0,1824 -528,3297 -1546,4353 -1019,1092 -2491,1612 -4426,1612 -1758,0 -3195,-527 -4250,-1612l7 -37zm30644 -40866l0 0c11344,0 16993,-4954 16993,-14816 0,-9798 -5650,-14677 -16993,-14677l-20429 0 0 29493 20429 0z"/>
   </g>
   <g id="_2574198849328">
    <path class="fil0" d="M3231864 610143c0,1472 -594,2667 -1789,3686 -1194,982 -2491,1472 -3964,1472 -982,0 -1935,-278 -2806,-879 -879,-564 -1546,-1407 -2001,-2454l-7584 -17206 -42024 0 -7583 17206c-455,1092 -1158,1898 -2074,2454 -916,564 -1861,879 -2879,879 -1546,0 -2880,-491 -4074,-1472 -1194,-982 -1789,-2213 -1789,-3686 0,-631 176,-1371 564,-2279l32373 -70851c528,-1231 1408,-2176 2565,-2880 1194,-667 2425,-1018 3722,-1018 1297,0 2528,351 3722,1018 1194,704 2037,1649 2565,2880l32373 70851c388,916 564,1685 564,2279l117 0zm-55932 -24819l0 0 33634 0 -16890 -37986 -16780 37986 36 0z"/>
   </g>
   <g id="_2574198850160">
    <path class="fil0" d="M3316930 610605c0,1370 -564,2528 -1649,3510 -1121,945 -2389,1436 -3861,1436 -2140,0 -3862,-945 -5159,-2880l-15381 -23873c-1758,-2740 -3649,-4668 -5620,-5796 -2001,-1122 -4602,-1649 -7797,-1649l-12956 0 0 28013c0,1825 -527,3298 -1546,4353 -1018,1092 -2454,1612 -4316,1612 -1758,0 -3195,-527 -4250,-1612 -1056,-1055 -1612,-2527 -1612,-4353l0 -69795c0,-1758 527,-3158 1546,-4177 1019,-1018 2454,-1546 4316,-1546l28577 0c8955,0 15799,2001 20503,5972 4704,4001 7056,9798 7056,17447 0,6353 -1788,11482 -5407,15447 -3613,3935 -8742,6463 -15381,7511 2001,527 3788,1509 5408,2880 1612,1370 3158,3297 4704,5722l11833 18605c704,982 1019,2074 1019,3231l-29 -58zm-31106 -38800l0 0c5971,0 10390,-1157 13270,-3509 2880,-2353 4316,-5936 4316,-10845 0,-4880 -1407,-8463 -4250,-10742 -2843,-2250 -7268,-3372 -13307,-3372l-21484 0 0 28476 21484 0 -29 -8z"/>
   </g>
   <g id="_2574198851088">
    <path class="fil0" d="M3411793 610143c0,1472 -594,2667 -1789,3686 -1194,982 -2491,1472 -3964,1472 -982,0 -1935,-278 -2806,-879 -879,-564 -1546,-1407 -2001,-2454l-7584 -17206 -42024 0 -7583 17206c-455,1092 -1158,1898 -2074,2454 -916,564 -1861,879 -2879,879 -1546,0 -2880,-491 -4074,-1472 -1194,-982 -1789,-2213 -1789,-3686 0,-631 176,-1371 564,-2279l32373 -70851c528,-1231 1408,-2176 2565,-2880 1194,-667 2425,-1018 3722,-1018 1297,0 2528,351 3722,1018 1194,704 2037,1649 2602,2880l32372 70851c389,916 565,1685 565,2279l80 0zm-55932 -24819l0 0 33634 0 -16890 -37986 -16780 37986 36 0z"/>
   </g>
   <g id="_2574198852752">
    <path class="fil0" d="M3473125 613199c-1019,-1019 -1546,-2425 -1546,-4177l0 -69444c0,-1759 527,-3158 1546,-4177 1019,-1019 2454,-1546 4316,-1546l42237 0c1758,0 3121,418 4074,1260 945,842 1436,2038 1436,3547 0,1546 -491,2704 -1436,3510 -945,806 -2316,1194 -4074,1194l-36514 0 0 25485 34198 0c1758,0 3121,418 4074,1260 945,843 1437,2038 1437,3547 0,1546 -491,2704 -1437,3547 -945,842 -2316,1260 -4074,1260l-34198 0 0 26753 36514 0c3686,0 5510,1583 5510,4704 0,1546 -491,2704 -1436,3546 -945,843 -2316,1261 -4074,1261l-42237 0c-1824,0 -3268,-528 -4316,-1546l0 15z"/>
   </g>
   <g id="_2574198853904">
    <path class="fil0" d="M3548922 613235c-1019,-981 -1546,-2315 -1546,-4037l0 -70045c0,-1758 527,-3195 1612,-4316 1056,-1122 2491,-1686 4250,-1686 1825,0 3298,528 4353,1612 1055,1092 1612,2528 1612,4353l0 65685 34894 0c1758,0 3121,418 4074,1260 945,842 1436,2074 1436,3686 0,1612 -491,2843 -1436,3687 -945,842 -2316,1260 -4074,1260l-41006 0c-1758,0 -3158,-491 -4176,-1473l7 15z"/>
   </g>
   <g id="_2574198853936">
    <path class="fil0" d="M3659232 613199c-1018,-1019 -1546,-2425 -1546,-4177l0 -69444c0,-1759 528,-3158 1546,-4177 1056,-1019 2491,-1546 4317,-1546l22503 0c13094,0 23243,3510 30402,10566 7196,7057 10780,16993 10780,29845 0,12853 -3584,22818 -10780,29911 -7196,7094 -17344,10603 -30402,10603l-22503 0c-1825,0 -3269,-527 -4317,-1546l0 -36zm26123 -8317l0 0c19909,0 29846,-10214 29846,-30651 0,-20364 -9937,-30542 -29846,-30542l-15835 0 0 61193 15835 0z"/>
   </g>
   <g id="_2574198854416">
    <path class="fil0" d="M3753502 613199c-1019,-1019 -1546,-2425 -1546,-4177l0 -69444c0,-1759 527,-3158 1546,-4177 1019,-1019 2454,-1546 4316,-1546l42237 0c1758,0 3121,418 4073,1260 946,842 1437,2038 1437,3547 0,1546 -455,2704 -1437,3510 -945,806 -2315,1194 -4073,1194l-36514 0 0 25485 34198 0c1758,0 3121,418 4074,1260 945,843 1436,2038 1436,3547 0,1546 -491,2704 -1436,3547 -945,842 -2316,1260 -4074,1260l-34198 0 0 26753 36514 0c3686,0 5510,1583 5510,4704 0,1546 -455,2704 -1437,3546 -945,843 -2315,1261 -4073,1261l-42237 0c-1824,0 -3268,-528 -4316,-1546l0 15z"/>
   </g>
   <g id="_2574198856432">
    <path class="fil0" d="M3836744 613235c-5232,-1612 -9446,-3824 -12567,-6667 -1436,-1231 -2176,-2806 -2176,-4704 0,-1371 389,-2528 1157,-3510 741,-945 1686,-1437 2740,-1437 1056,0 2353,491 3899,1510 6807,5055 14567,7583 23309,7583 6112,0 10815,-1157 14113,-3444 3298,-2315 4954,-5584 4954,-9862 0,-3371 -1546,-5899 -4602,-7584 -3055,-1685 -7972,-3297 -14677,-4806 -6426,-1371 -11724,-2946 -15835,-4704 -4140,-1759 -7371,-4140 -9687,-7196 -2353,-3020 -3510,-6881 -3510,-11548 0,-4669 1260,-8816 3825,-12464 2565,-3650 6140,-6464 10742,-8493 4603,-2038 9834,-3056 15725,-3056 5445,0 10464,770 15029,2279 4602,1546 8493,3788 11724,6778 1546,1297 2316,2880 2316,4704 0,1297 -389,2455 -1194,3444 -807,982 -1758,1509 -2806,1509 -982,0 -2250,-491 -3788,-1509 -3510,-2667 -6844,-4602 -9936,-5796 -3092,-1194 -6844,-1789 -11197,-1789 -5899,0 -10464,1195 -13761,3613 -3297,2425 -4953,5760 -4953,10039 0,3686 1436,6463 4353,8324 2916,1861 7583,3584 14010,5093 6741,1546 12185,3121 16362,4777 4177,1649 7511,3899 9973,6778 2491,2880 3722,6566 3722,11095 0,4602 -1260,8668 -3825,12215 -2565,3546 -6177,6316 -10779,8250 -4632,1964 -9973,2917 -16011,2917 -5825,0 -11373,-807 -16605,-2425l-44 87z"/>
   </g>
   <g id="_2574198857488">
    <path class="fil0" d="M3978614 610143c0,1472 -593,2667 -1788,3686 -1194,982 -2491,1472 -3965,1472 -982,0 -1934,-278 -2806,-879 -879,-564 -1546,-1407 -2001,-2454l-7583 -17206 -42024 0 -7584 17206c-455,1092 -1157,1898 -2074,2454 -916,564 -1861,879 -2880,879 -1546,0 -2880,-491 -4074,-1472 -1194,-982 -1788,-2213 -1788,-3686 0,-631 175,-1371 564,-2279l32373 -70851c527,-1231 1407,-2176 2564,-2880 1195,-667 2425,-1018 3722,-1018 1297,0 2528,351 3722,1018 1195,704 2038,1649 2565,2880l32373 70851c389,916 564,1685 564,2279l117 0zm-55925 -24819l0 0 33634 0 -16890 -37986 -16781 37986 37 0z"/>
   </g>
   <g id="_2574198856656">
    <path class="fil0" d="M4063680 610605c0,1370 -564,2528 -1648,3510 -1122,945 -2390,1436 -3862,1436 -2139,0 -3862,-945 -5159,-2880l-15380 -23873c-1758,-2740 -3650,-4668 -5620,-5796 -2001,-1122 -4602,-1649 -7797,-1649l-12992 0 0 28013c0,1825 -527,3298 -1546,4353 -1019,1092 -2454,1612 -4316,1612 -1759,0 -3195,-527 -4251,-1612 -1092,-1055 -1612,-2527 -1612,-4353l0 -69795c0,-1758 528,-3158 1546,-4177 1019,-1018 2455,-1546 4317,-1546l28577 0c8954,0 15798,2001 20502,5972 4704,4001 7057,9798 7057,17447 0,6353 -1789,11482 -5408,15447 -3612,3935 -8742,6463 -15380,7511 2000,527 3788,1509 5407,2880 1612,1370 3158,3297 4704,5722l11834 18605c704,982 1019,2074 1019,3231l7 -58zm-31106 -38800l0 0c5972,0 10391,-1157 13271,-3509 2879,-2353 4316,-5936 4316,-10845 0,-4880 -1408,-8463 -4250,-10742 -2843,-2250 -7269,-3372 -13308,-3372l-21484 0 0 28476 21484 0 -29 -8z"/>
   </g>
   <g id="_2574198858352">
    <path class="fil0" d="M4151524 610605c0,1370 -564,2528 -1685,3510 -1092,945 -2389,1436 -3862,1436 -2139,0 -3861,-945 -5158,-2880l-15381 -23873c-1758,-2740 -3649,-4668 -5650,-5796 -2001,-1122 -4602,-1649 -7797,-1649l-12955 0 0 28013c0,1825 -527,3298 -1546,4353 -1019,1092 -2454,1612 -4316,1612 -1759,0 -3158,-527 -4251,-1612 -1092,-1055 -1612,-2527 -1612,-4353l0 -69795c0,-1758 528,-3158 1546,-4177 1019,-1018 2455,-1546 4317,-1546l28577 0c8954,0 15798,2001 20502,5972 4704,4001 7057,9798 7057,17447 0,6353 -1789,11482 -5408,15447 -3613,3935 -8742,6463 -15380,7511 2000,527 3788,1509 5407,2880 1612,1370 3158,3297 4704,5722l11834 18605c704,982 1019,2074 1019,3231l36 -58zm-31106 -38800l0 0c5972,0 10391,-1157 13271,-3509 2879,-2353 4316,-5936 4316,-10845 0,-4880 -1407,-8463 -4250,-10742 -2843,-2250 -7269,-3372 -13308,-3372l-21484 0 0 28476 21484 0 -29 -8z"/>
   </g>
   <g id="_2574330629952">
    <path class="fil0" d="M4189445 610605c-5620,-3371 -9973,-8149 -13028,-14362 -3056,-6214 -4602,-13520 -4602,-21946 0,-8493 1509,-15872 4528,-22085 3019,-6251 7371,-11021 13028,-14362 5650,-3335 12325,-4983 19975,-4983 7723,0 14428,1648 20115,4983 5650,3334 10009,8112 13028,14362 3019,6250 4528,13548 4528,21975 0,8427 -1509,15762 -4528,21976 -3020,6251 -7372,11057 -13028,14428 -5650,3371 -12362,5055 -20115,5055 -7650,0 -14289,-1685 -19909,-5055l8 15zm38865 -12853l0 0c4528,-5510 6778,-13344 6778,-23521 0,-10179 -2250,-18012 -6704,-23485 -4492,-5474 -10816,-8215 -18994,-8215 -8038,0 -14289,2740 -18780,8215 -4455,5473 -6705,13307 -6705,23485 0,10178 2250,18011 6705,23521 4491,5511 10742,8251 18780,8251 8112,0 14428,-2740 18957,-8251l-37 0z"/>
   </g>
   <g id="_2574330630496">
    <path class="fil0" d="M4273280 613235c-1019,-981 -1546,-2315 -1546,-4037l0 -70045c0,-1758 527,-3195 1612,-4316 1056,-1122 2491,-1686 4250,-1686 1824,0 3298,528 4353,1612 1056,1092 1612,2528 1612,4353l0 65685 34895 0c1758,0 3121,418 4074,1260 945,842 1436,2074 1436,3686 0,1612 -491,2843 -1436,3687 -946,842 -2316,1260 -4074,1260l-41006 0c-1758,0 -3158,-491 -4177,-1473l8 15z"/>
   </g>
   <g id="_2574330630240">
    <path class="fil0" d="M4344687 613235c-1019,-981 -1546,-2315 -1546,-4037l0 -70045c0,-1758 527,-3195 1612,-4316 1056,-1122 2491,-1686 4250,-1686 1825,0 3298,528 4353,1612 1055,1092 1612,2528 1612,4353l0 65685 34894 0c1758,0 3121,418 4074,1260 945,842 1436,2074 1436,3686 0,1612 -491,2843 -1436,3687 -945,842 -2316,1260 -4074,1260l-41006 0c-1758,0 -3158,-491 -4176,-1473l7 15z"/>
   </g>
   <g id="_2574330638176">
    <path class="fil0" d="M4425160 610605c-5620,-3371 -9973,-8149 -13028,-14362 -3055,-6214 -4602,-13520 -4602,-21946 0,-8493 1509,-15872 4528,-22085 3020,-6251 7372,-11021 13028,-14362 5650,-3335 12326,-4983 19975,-4983 7724,0 14428,1648 20115,4983 5650,3334 10010,8112 13028,14362 3019,6250 4528,13548 4528,21975 0,8427 -1509,15762 -4528,21976 -3019,6251 -7371,11057 -13028,14428 -5650,3371 -12362,5055 -20115,5055 -7649,0 -14289,-1685 -19909,-5055l8 15zm38865 -12853l0 0c4529,-5510 6778,-13344 6778,-23521 0,-10179 -2249,-18012 -6704,-23485 -4492,-5474 -10815,-8215 -18993,-8215 -8039,0 -14290,2740 -18781,8215 -4492,5473 -6705,13307 -6705,23485 0,10178 2250,18011 6705,23521 4491,5511 10742,8251 18781,8251 8112,0 14427,-2740 18956,-8251l-37 0z"/>
   </g>
   <g id="_2574330640480">
    <g>
     <polygon class="fil0" points="2970589,847441 2963108,847441 2963108,1 2970589,1 "/>
    </g>
   </g>
  </g>
 </g>
</svg>
